<!-- Generated by IcoMoon.io -->
<svg version="1.1" xmlns="http://www.w3.org/2000/svg" width="32" height="32" viewBox="0 0 32 32">
<title>phonebook</title>
<path  d="M15.308 16.427c2.042 0 2.53-1.665 2.53-3.063s-1.133-2.53-2.53-2.53c-1.397 0-2.53 1.133-2.53 2.53s0.671 3.063 2.53 3.063z"></path>
<path  d="M15.661 16.779h-0.705c-1.387 0-3.466 1.27-3.466 2.838s-0.47 2.839 0.916 2.839h5.806c1.387 0 0.916-1.271 0.916-2.839s-2.080-2.838-3.467-2.838z"></path>
<path  d="M15.999 0c-8.836 0-15.999 7.164-15.999 16s7.163 16 15.999 16c8.837 0 16.001-7.164 16.001-16s-7.164-16-16.001-16zM22.501 23.161v1.107c0 0.611-0.495 1.107-1.107 1.107h-11.066c-1.222 0-2.213-0.991-2.213-2.213v-13.925c0-1.222 0.991-2.213 2.213-2.213h11.066c0.611 0 1.107 0.495 1.107 1.107v1.107h0v13.925zM24.715 9.236v15.031c0 0.611-0.495 1.107-1.107 1.107h-0.299c0.189-0.326 0.299-0.703 0.299-1.107v-16.138c0-0.403-0.11-0.781-0.299-1.107h0.299c0.611 0 1.107 0.495 1.107 1.107v1.107z"></path>
</svg>
