<!-- Generated by IcoMoon.io -->
<svg version="1.1" xmlns="http://www.w3.org/2000/svg" width="32" height="32" viewBox="0 0 32 32">
<title>phonebook1</title>
<path d="M26.882 29.187c0 0.515-0.423 0.938-0.938 0.938h-21.699c-0.515 0-0.938-0.423-0.938-0.938v-0.383h20.2c1.030 0 1.869-0.839 1.869-1.869v-25.066c0-1.037-0.839-1.869-1.869-1.869h-20.2c-1.030 0-1.869 0.839-1.869 1.869v25.066c0 0.007 0 0.007 0 0.013v2.245c0 1.545 1.261 2.806 2.806 2.806h21.699c1.545 0 2.806-1.261 2.806-2.806v-3.889h-1.869v3.883zM6.742 9.865c0.040-0.508 0.231-0.944 0.607-1.301 0.403-0.383 0.786-0.786 1.182-1.182 0.522-0.508 1.169-0.508 1.69 0 0.324 0.317 0.641 0.634 0.957 0.957 0.31 0.31 0.621 0.621 0.931 0.931 0.541 0.548 0.541 1.189 0 1.73-0.39 0.39-0.773 0.786-1.169 1.162-0.106 0.099-0.112 0.185-0.059 0.31 0.258 0.627 0.634 1.175 1.057 1.697 0.852 1.043 1.809 1.974 2.958 2.694 0.244 0.152 0.515 0.264 0.773 0.403 0.132 0.073 0.225 0.046 0.33-0.059 0.39-0.403 0.786-0.792 1.182-1.182 0.515-0.515 1.169-0.515 1.69 0 0.634 0.627 1.268 1.261 1.902 1.902 0.528 0.535 0.522 1.182-0.007 1.723-0.357 0.363-0.74 0.707-1.076 1.090-0.495 0.555-1.116 0.733-1.823 0.693-1.030-0.059-1.981-0.396-2.899-0.845-2.040-0.991-3.777-2.364-5.236-4.094-1.076-1.281-1.968-2.681-2.556-4.253-0.297-0.773-0.495-1.552-0.436-2.377z"></path>
<path d="M29.438 10.572h-2.496v5.487h2.496c0.621 0 1.123-0.502 1.123-1.123v-3.242c0-0.621-0.502-1.123-1.123-1.123z"></path>
<path d="M29.438 17.869h-2.496v5.487h2.496c0.621 0 1.123-0.502 1.123-1.123v-3.242c0-0.621-0.502-1.123-1.123-1.123z"></path>
<path d="M29.438 3.275h-2.496v5.487h2.496c0.621 0 1.123-0.502 1.123-1.123v-3.242c0-0.621-0.502-1.123-1.123-1.123z"></path>
</svg>
