<!-- Generated by IcoMoon.io -->
<svg version="1.1" xmlns="http://www.w3.org/2000/svg" width="32" height="32" viewBox="0 0 32 32">
<title>telephone</title>
<path d="M13.34 32h-8.078c-0.197 0-0.368-0.096-0.473-0.244-0.006-0.004-0.010-0.008-0.013-0.013-0.002-0.004-0.004-0.009-0.006-0.012-0.060-0.090-0.094-0.199-0.094-0.317v0-2.192l8.664 2.779zM15.138 17.145l-11.178-3.582c-0.364-0.118-0.66 0.083-0.66 0.447v0 13.412c0 0.134 0.039 0.266 0.107 0.39 0.002 0.004 0.004 0.010 0.006 0.013 0.004 0.010 0.010 0.017 0.013 0.022 0.12 0.203 0.313 0.374 0.534 0.443v0l11.178 3.583c0.364 0.115 0.659-0.086 0.659-0.45v-13.411c-0.002-0.364-0.294-0.753-0.659-0.869zM18.663 32h8.081c0.197 0 0.369-0.096 0.473-0.244 0.004-0.004 0.010-0.008 0.013-0.013 0.003-0.004 0.005-0.009 0.007-0.012 0.060-0.090 0.094-0.199 0.094-0.317v0-2.192l-8.668 2.779zM16.206 18.015v13.411c0 0.364 0.295 0.565 0.66 0.449l11.178-3.583c0.22-0.068 0.415-0.24 0.535-0.443 0.004-0.009 0.010-0.016 0.014-0.021 0.002-0.004 0.004-0.010 0.006-0.013 0.066-0.125 0.106-0.261 0.106-0.39v0-13.413c0-0.364-0.297-0.565-0.661-0.447v0l-11.178 3.582c-0.364 0.117-0.66 0.506-0.66 0.87zM21.971 0.289c-1.936-0.156-3.872-0.244-5.812-0.28v-0.010c-0.054 0.002-0.104 0.006-0.157 0.004-0.053 0-0.103-0.002-0.156-0.004v0.010c-1.94 0.036-3.877 0.124-5.812 0.282-5.064 0.406-8.427 4.382-7.553 8.282 0.036 0.169 0.036 0.349 0.103 0.511 0.392 0.949 1.131 1.735 1.671 2.612 0.701 1.119 6.647-1.292 5.881-2.784-0.289-0.552-1.414-2.077-1.502-2.687-0.079-0.548 0.647-0.979 1.318-1.031 1.763-0.144 10.331-0.142 12.095 0 0.668 0.053 1.393 0.481 1.315 1.031-0.086 0.612-1.21 2.135-1.5 2.687-0.769 1.493 5.179 3.902 5.877 2.784 0.543-0.875 1.282-1.663 1.674-2.614 0.065-0.16 0.067-0.34 0.101-0.509 0.877-3.898-2.484-7.877-7.545-8.284z"></path>
</svg>
